# xmcd
#
# Track frame offsets:
#	150
#	19755
#	39300
#	57020
#	80985
#	101812
#	125482
#	144385
#	163042
#	184947
#	204075
#	217975
#	236625
#	248327
#	262044
#	275632
#	291122
#
# Disc length: 4224 seconds
#
# Revision: 1
# Processed by: cddbd v1.5.2PL0 Copyright (c) Steve Scherf et al.
# Submitted via: audiograbber 1.83.01
#
DISCID=f5107e11
DTITLE=Keb Mo - Slow Down
DYEAR=1998
DGENRE=Blues
TTITLE0=Muddy Waters
TTITLE1=I Was Wrong
TTITLE2=Everything I Need
TTITLE3=Henry
TTITLE4=Soon As I Get Paid
TTITLE5=A Better Man
TTITLE6=I Don't Know
TTITLE7=A Letter To Tracy
TTITLE8=Slow Down
TTITLE9=Rainmaker
TTITLE10=Love In Vain
TTITLE11=God Trying To Get Your Attention
TTITLE12=I'm Telling To Get Your Attention
TTITLE13=More Than One Way More
TTITLE14=Every Morning
TTITLE15=Just Like You
TTITLE16=Dangerous Mood (Live)
EXTD=
EXTT0=
EXTT1=
EXTT2=
EXTT3=
EXTT4=
EXTT5=
EXTT6=
EXTT7=
EXTT8=
EXTT9=
EXTT10=
EXTT11=
EXTT12=
EXTT13=
EXTT14=
EXTT15=
EXTT16=
PLAYORDER=
